<?xml version="1.0" encoding="utf-8" standalone="no"?>
<!DOCTYPE svg PUBLIC "-//W3C//DTD SVG 1.1//EN"
  "http://www.w3.org/Graphics/SVG/1.1/DTD/svg11.dtd">
<!-- Created with matplotlib (http://matplotlib.org/) -->
<svg height="288pt" version="1.1" viewBox="0 0 432 288" width="432pt" xmlns="http://www.w3.org/2000/svg" xmlns:xlink="http://www.w3.org/1999/xlink">
 <defs>
  <style type="text/css">
*{stroke-linecap:butt;stroke-linejoin:round;}
  </style>
 </defs>
 <g id="figure_1">
  <g id="patch_1">
   <path d="M 0 288 
L 432 288 
L 432 0 
L 0 0 
z
" style="fill:#ffffff;"/>
  </g>
  <g id="axes_1">
   <g id="patch_2">
    <path d="M 77.581934 229.610711 
L 400.846245 229.610711 
L 400.846245 22.814794 
L 77.581934 22.814794 
z
" style="fill:#ffffff;"/>
   </g>
   <g id="PathCollection_1">
    <defs>
     <path d="M 0 3 
C 0.795609 3 1.55874 2.683901 2.12132 2.12132 
C 2.683901 1.55874 3 0.795609 3 0 
C 3 -0.795609 2.683901 -1.55874 2.12132 -2.12132 
C 1.55874 -2.683901 0.795609 -3 0 -3 
C -0.795609 -3 -1.55874 -2.683901 -2.12132 -2.12132 
C -2.683901 -1.55874 -3 -0.795609 -3 0 
C -3 0.795609 -2.683901 1.55874 -2.12132 2.12132 
C -1.55874 2.683901 -0.795609 3 0 3 
z
" id="m88b7cd5cbb" style="stroke:#000000;"/>
    </defs>
    <g clip-path="url(#pcf82c5ef7f)">
     <use style="stroke:#000000;" x="121.494729" xlink:href="#m88b7cd5cbb" y="63.522876"/>
     <use style="stroke:#000000;" x="125.55404" xlink:href="#m88b7cd5cbb" y="64.13384"/>
     <use style="stroke:#000000;" x="128.032176" xlink:href="#m88b7cd5cbb" y="64.753231"/>
     <use style="stroke:#000000;" x="138.247836" xlink:href="#m88b7cd5cbb" y="65.381285"/>
     <use style="stroke:#000000;" x="141.552716" xlink:href="#m88b7cd5cbb" y="66.018249"/>
     <use style="stroke:#000000;" x="145.59642" xlink:href="#m88b7cd5cbb" y="66.664377"/>
     <use style="stroke:#000000;" x="145.910273" xlink:href="#m88b7cd5cbb" y="67.319939"/>
     <use style="stroke:#000000;" x="145.910273" xlink:href="#m88b7cd5cbb" y="67.985213"/>
     <use style="stroke:#000000;" x="147.26102" xlink:href="#m88b7cd5cbb" y="68.660491"/>
     <use style="stroke:#000000;" x="148.870908" xlink:href="#m88b7cd5cbb" y="69.346079"/>
     <use style="stroke:#000000;" x="149.242698" xlink:href="#m88b7cd5cbb" y="70.042297"/>
     <use style="stroke:#000000;" x="149.824382" xlink:href="#m88b7cd5cbb" y="70.74948"/>
     <use style="stroke:#000000;" x="150.267993" xlink:href="#m88b7cd5cbb" y="71.467978"/>
     <use style="stroke:#000000;" x="156.578037" xlink:href="#m88b7cd5cbb" y="72.198159"/>
     <use style="stroke:#000000;" x="162.873475" xlink:href="#m88b7cd5cbb" y="72.94041"/>
     <use style="stroke:#000000;" x="163.17917" xlink:href="#m88b7cd5cbb" y="73.695137"/>
     <use style="stroke:#000000;" x="164.785298" xlink:href="#m88b7cd5cbb" y="74.462765"/>
     <use style="stroke:#000000;" x="172.069111" xlink:href="#m88b7cd5cbb" y="75.243744"/>
     <use style="stroke:#000000;" x="172.969117" xlink:href="#m88b7cd5cbb" y="76.038546"/>
     <use style="stroke:#000000;" x="175.423006" xlink:href="#m88b7cd5cbb" y="76.84767"/>
     <use style="stroke:#000000;" x="176.211101" xlink:href="#m88b7cd5cbb" y="77.671641"/>
     <use style="stroke:#000000;" x="178.163183" xlink:href="#m88b7cd5cbb" y="78.511015"/>
     <use style="stroke:#000000;" x="183.432519" xlink:href="#m88b7cd5cbb" y="79.366377"/>
     <use style="stroke:#000000;" x="183.432519" xlink:href="#m88b7cd5cbb" y="80.238349"/>
     <use style="stroke:#000000;" x="193.622016" xlink:href="#m88b7cd5cbb" y="81.127589"/>
     <use style="stroke:#000000;" x="195.444314" xlink:href="#m88b7cd5cbb" y="82.034795"/>
     <use style="stroke:#000000;" x="196.286566" xlink:href="#m88b7cd5cbb" y="82.960708"/>
     <use style="stroke:#000000;" x="197.135709" xlink:href="#m88b7cd5cbb" y="83.906114"/>
     <use style="stroke:#000000;" x="197.147252" xlink:href="#m88b7cd5cbb" y="84.871854"/>
     <use style="stroke:#000000;" x="197.147849" xlink:href="#m88b7cd5cbb" y="85.858821"/>
     <use style="stroke:#000000;" x="203.402216" xlink:href="#m88b7cd5cbb" y="86.867968"/>
     <use style="stroke:#000000;" x="206.274048" xlink:href="#m88b7cd5cbb" y="87.900316"/>
     <use style="stroke:#000000;" x="210.376798" xlink:href="#m88b7cd5cbb" y="88.956957"/>
     <use style="stroke:#000000;" x="214.170223" xlink:href="#m88b7cd5cbb" y="90.039061"/>
     <use style="stroke:#000000;" x="215.279476" xlink:href="#m88b7cd5cbb" y="91.147887"/>
     <use style="stroke:#000000;" x="217.590841" xlink:href="#m88b7cd5cbb" y="92.284787"/>
     <use style="stroke:#000000;" x="218.032322" xlink:href="#m88b7cd5cbb" y="93.451221"/>
     <use style="stroke:#000000;" x="223.355574" xlink:href="#m88b7cd5cbb" y="94.648763"/>
     <use style="stroke:#000000;" x="226.17527" xlink:href="#m88b7cd5cbb" y="95.879118"/>
     <use style="stroke:#000000;" x="226.547412" xlink:href="#m88b7cd5cbb" y="97.144136"/>
     <use style="stroke:#000000;" x="228.487827" xlink:href="#m88b7cd5cbb" y="98.445826"/>
     <use style="stroke:#000000;" x="229.199196" xlink:href="#m88b7cd5cbb" y="99.786378"/>
     <use style="stroke:#000000;" x="231.077802" xlink:href="#m88b7cd5cbb" y="101.168184"/>
     <use style="stroke:#000000;" x="234.759296" xlink:href="#m88b7cd5cbb" y="102.593865"/>
     <use style="stroke:#000000;" x="235.779387" xlink:href="#m88b7cd5cbb" y="104.066297"/>
     <use style="stroke:#000000;" x="251.939784" xlink:href="#m88b7cd5cbb" y="105.588652"/>
     <use style="stroke:#000000;" x="254.628212" xlink:href="#m88b7cd5cbb" y="107.164433"/>
     <use style="stroke:#000000;" x="254.754404" xlink:href="#m88b7cd5cbb" y="108.797528"/>
     <use style="stroke:#000000;" x="255.321124" xlink:href="#m88b7cd5cbb" y="110.492264"/>
     <use style="stroke:#000000;" x="256.043388" xlink:href="#m88b7cd5cbb" y="112.253476"/>
     <use style="stroke:#000000;" x="258.010961" xlink:href="#m88b7cd5cbb" y="114.086595"/>
     <use style="stroke:#000000;" x="261.498144" xlink:href="#m88b7cd5cbb" y="115.997741"/>
     <use style="stroke:#000000;" x="262.964937" xlink:href="#m88b7cd5cbb" y="117.993855"/>
     <use style="stroke:#000000;" x="265.205811" xlink:href="#m88b7cd5cbb" y="120.082844"/>
     <use style="stroke:#000000;" x="266.883923" xlink:href="#m88b7cd5cbb" y="122.273774"/>
     <use style="stroke:#000000;" x="274.460721" xlink:href="#m88b7cd5cbb" y="124.577108"/>
     <use style="stroke:#000000;" x="278.022839" xlink:href="#m88b7cd5cbb" y="127.005005"/>
     <use style="stroke:#000000;" x="283.713297" xlink:href="#m88b7cd5cbb" y="129.571713"/>
     <use style="stroke:#000000;" x="283.880683" xlink:href="#m88b7cd5cbb" y="132.294071"/>
     <use style="stroke:#000000;" x="295.590585" xlink:href="#m88b7cd5cbb" y="135.192184"/>
     <use style="stroke:#000000;" x="300.203523" xlink:href="#m88b7cd5cbb" y="138.29032"/>
     <use style="stroke:#000000;" x="300.654065" xlink:href="#m88b7cd5cbb" y="141.618151"/>
     <use style="stroke:#000000;" x="302.383387" xlink:href="#m88b7cd5cbb" y="145.212482"/>
     <use style="stroke:#000000;" x="304.567459" xlink:href="#m88b7cd5cbb" y="149.119742"/>
     <use style="stroke:#000000;" x="304.603655" xlink:href="#m88b7cd5cbb" y="153.399661"/>
     <use style="stroke:#000000;" x="319.311422" xlink:href="#m88b7cd5cbb" y="158.130892"/>
     <use style="stroke:#000000;" x="333.604213" xlink:href="#m88b7cd5cbb" y="163.419958"/>
     <use style="stroke:#000000;" x="347.521268" xlink:href="#m88b7cd5cbb" y="169.416207"/>
     <use style="stroke:#000000;" x="363.015933" xlink:href="#m88b7cd5cbb" y="176.338369"/>
     <use style="stroke:#000000;" x="365.491024" xlink:href="#m88b7cd5cbb" y="184.525548"/>
     <use style="stroke:#000000;" x="372.719845" xlink:href="#m88b7cd5cbb" y="194.545846"/>
    </g>
   </g>
   <g id="matplotlib.axis_1">
    <g id="xtick_1">
     <g id="line2d_1">
      <defs>
       <path d="M 0 0 
L 0 3.5 
" id="m0929f655a4" style="stroke:#000000;stroke-width:0.8;"/>
      </defs>
      <g>
       <use style="stroke:#000000;stroke-width:0.8;" x="77.581934" xlink:href="#m0929f655a4" y="229.610711"/>
      </g>
     </g>
     <g id="text_1">
      <!-- $31.5$ -->
      <defs>
       <path d="M 22.09375 33.703125 
C 31 33.703125 34.90625 25.96875 34.90625 17.03125 
C 34.90625 5 28.5 0.390625 22.703125 0.390625 
C 17.40625 0.390625 8.796875 3.03125 6.09375 10.828125 
C 6.59375 10.625 7.09375 10.625 7.59375 10.625 
C 10 10.625 11.796875 12.21875 11.796875 14.8125 
C 11.796875 17.703125 9.59375 19 7.59375 19 
C 5.90625 19 3.296875 18.203125 3.296875 14.46875 
C 3.296875 5.234375 12.296875 -2 22.90625 -2 
C 34 -2 42.5 6.71875 42.5 16.953125 
C 42.5 26.671875 34.5 33.703125 25 34.796875 
C 32.59375 36.375 39.90625 43.0625 39.90625 52.015625 
C 39.90625 59.6875 32 65.296875 23 65.296875 
C 13.90625 65.296875 5.90625 59.828125 5.90625 52.015625 
C 5.90625 48.59375 8.5 48 9.796875 48 
C 11.90625 48 13.703125 49.296875 13.703125 51.890625 
C 13.703125 54.46875 11.90625 55.765625 9.796875 55.765625 
C 9.40625 55.765625 8.90625 55.765625 8.5 55.578125 
C 11.40625 61.859375 19.296875 63 22.796875 63 
C 26.296875 63 32.90625 61.328125 32.90625 51.875 
C 32.90625 49.109375 32.5 44.1875 29.09375 39.84375 
C 26.09375 36 22.703125 36 19.40625 35.6875 
C 18.90625 35.6875 16.59375 35.453125 16.203125 35.453125 
C 15.5 35.359375 15.09375 35.265625 15.09375 34.5 
C 15.09375 33.796875 15.203125 33.703125 17.203125 33.703125 
z
" id="CMR17-51"/>
       <path d="M 26.59375 63.40625 
C 26.59375 65.5 26.5 65.5 25.09375 65.5 
C 21.203125 61.1875 15.296875 59.796875 9.703125 59.796875 
C 9.40625 59.796875 8.90625 59.796875 8.796875 59.5 
C 8.703125 59.296875 8.703125 59.09375 8.703125 57 
C 11.796875 57 17 57.59375 21 59.984375 
L 21 7.203125 
C 21 3.6875 20.796875 2.5 12.203125 2.5 
L 9.203125 2.5 
L 9.203125 0 
C 14 0 19 0 23.796875 0 
C 28.59375 0 33.59375 0 38.40625 0 
L 38.40625 2.5 
L 35.40625 2.5 
C 26.796875 2.5 26.59375 3.59375 26.59375 7.15625 
z
" id="CMR17-49"/>
       <path d="M 18.40625 4.796875 
C 18.40625 7.6875 16 9.671875 13.59375 9.671875 
C 10.703125 9.671875 8.703125 7.28125 8.703125 4.890625 
C 8.703125 2 11.09375 0 13.5 0 
C 16.40625 0 18.40625 2.390625 18.40625 4.796875 
" id="CMMI12-58"/>
       <path d="M 11.40625 57.6875 
C 12.40625 57.28125 16.5 56 20.703125 56 
C 30 56 35.09375 61.109375 38 64.0625 
C 38 64.953125 38 65.5 37.40625 65.5 
C 37.296875 65.5 37.09375 65.5 36.296875 65.046875 
C 32.796875 63.40625 28.703125 62.078125 23.703125 62.078125 
C 20.703125 62.078125 16.203125 62.484375 11.296875 64.671875 
C 10.203125 65.171875 10 65.171875 9.90625 65.171875 
C 9.40625 65.171875 9.296875 65.0625 9.296875 63.078125 
L 9.296875 34.421875 
C 9.296875 32.640625 9.296875 32.140625 10.296875 32.140625 
C 10.796875 32.140625 11 32.34375 11.5 33.03125 
C 14.703125 37.515625 19.09375 39.40625 24.09375 39.40625 
C 27.59375 39.40625 35.09375 37.21875 35.09375 20.140625 
C 35.09375 16.953125 35.09375 11.171875 32.09375 6.578125 
C 29.59375 2.484375 25.703125 0.390625 21.40625 0.390625 
C 14.796875 0.390625 8.09375 5 6.296875 12.71875 
C 6.703125 12.609375 7.5 12.421875 7.90625 12.421875 
C 9.203125 12.421875 11.703125 13.125 11.703125 16.21875 
C 11.703125 18.90625 9.796875 20 7.90625 20 
C 5.59375 20 4.09375 18.59375 4.09375 15.796875 
C 4.09375 7.09375 11 -2 21.59375 -2 
C 31.90625 -2 41.703125 6.875 41.703125 19.75 
C 41.703125 31.71875 33.90625 41 24.203125 41 
C 19.09375 41 14.796875 39.109375 11.40625 35.53125 
z
" id="CMR17-53"/>
      </defs>
      <g transform="translate(63.708179 247.6803)scale(0.16 -0.16)">
       <use transform="scale(0.996264)" xlink:href="#CMR17-51"/>
       <use transform="translate(45.690477 0)scale(0.996264)" xlink:href="#CMR17-49"/>
       <use transform="translate(91.380954 0)scale(0.996264)" xlink:href="#CMMI12-58"/>
       <use transform="translate(118.478131 0)scale(0.996264)" xlink:href="#CMR17-53"/>
      </g>
     </g>
    </g>
    <g id="xtick_2">
     <g id="line2d_2">
      <g>
       <use style="stroke:#000000;stroke-width:0.8;" x="158.398012" xlink:href="#m0929f655a4" y="229.610711"/>
      </g>
     </g>
     <g id="text_2">
      <!-- $32.0$ -->
      <defs>
       <path d="M 41.703125 15.453125 
L 39.90625 15.453125 
C 38.90625 8.375 38.09375 7.171875 37.703125 6.5625 
C 37.203125 5.765625 30 5.765625 28.59375 5.765625 
L 9.40625 5.765625 
C 13 9.671875 20 16.75 28.5 24.953125 
C 34.59375 30.734375 41.703125 37.53125 41.703125 47.421875 
C 41.703125 59.21875 32.296875 66 21.796875 66 
C 10.796875 66 4.09375 56.3125 4.09375 47.34375 
C 4.09375 43.4375 7 42.9375 8.203125 42.9375 
C 9.203125 42.9375 12.203125 43.546875 12.203125 47.03125 
C 12.203125 50.109375 9.59375 51 8.203125 51 
C 7.59375 51 7 50.90625 6.59375 50.703125 
C 8.5 59.21875 14.296875 63.40625 20.40625 63.40625 
C 29.09375 63.40625 34.796875 56.515625 34.796875 47.421875 
C 34.796875 38.734375 29.703125 31.25 24 24.75 
L 4.09375 2.28125 
L 4.09375 0 
L 39.296875 0 
z
" id="CMR17-50"/>
       <path d="M 42 31.640625 
C 42 37.75 41.90625 48.125 37.703125 56.109375 
C 34 63.109375 28.09375 65.59375 22.90625 65.59375 
C 18.09375 65.59375 12 63.40625 8.203125 56.203125 
C 4.203125 48.71875 3.796875 39.4375 3.796875 31.640625 
C 3.796875 25.953125 3.90625 17.28125 7 9.671875 
C 11.296875 -0.609375 19 -2 22.90625 -2 
C 27.5 -2 34.5 -0.109375 38.59375 9.375 
C 41.59375 16.28125 42 24.359375 42 31.640625 
M 22.90625 -0.40625 
C 16.5 -0.40625 12.703125 5.078125 11.296875 12.6875 
C 10.203125 18.5625 10.203125 27.15625 10.203125 32.75 
C 10.203125 40.4375 10.203125 46.828125 11.5 52.921875 
C 13.40625 61.390625 19 64 22.90625 64 
C 27 64 32.296875 61.296875 34.203125 53.125 
C 35.5 47.4375 35.59375 40.734375 35.59375 32.75 
C 35.59375 26.25 35.59375 18.265625 34.40625 12.375 
C 32.296875 1.484375 26.40625 -0.40625 22.90625 -0.40625 
" id="CMR17-48"/>
      </defs>
      <g transform="translate(144.524257 247.6803)scale(0.16 -0.16)">
       <use transform="scale(0.996264)" xlink:href="#CMR17-51"/>
       <use transform="translate(45.690477 0)scale(0.996264)" xlink:href="#CMR17-50"/>
       <use transform="translate(91.380954 0)scale(0.996264)" xlink:href="#CMMI12-58"/>
       <use transform="translate(118.478131 0)scale(0.996264)" xlink:href="#CMR17-48"/>
      </g>
     </g>
    </g>
    <g id="xtick_3">
     <g id="line2d_3">
      <g>
       <use style="stroke:#000000;stroke-width:0.8;" x="239.21409" xlink:href="#m0929f655a4" y="229.610711"/>
      </g>
     </g>
     <g id="text_3">
      <!-- $32.5$ -->
      <g transform="translate(225.340335 247.6803)scale(0.16 -0.16)">
       <use transform="scale(0.996264)" xlink:href="#CMR17-51"/>
       <use transform="translate(45.690477 0)scale(0.996264)" xlink:href="#CMR17-50"/>
       <use transform="translate(91.380954 0)scale(0.996264)" xlink:href="#CMMI12-58"/>
       <use transform="translate(118.478131 0)scale(0.996264)" xlink:href="#CMR17-53"/>
      </g>
     </g>
    </g>
    <g id="xtick_4">
     <g id="line2d_4">
      <g>
       <use style="stroke:#000000;stroke-width:0.8;" x="320.030168" xlink:href="#m0929f655a4" y="229.610711"/>
      </g>
     </g>
     <g id="text_4">
      <!-- $33.0$ -->
      <g transform="translate(306.156413 247.6803)scale(0.16 -0.16)">
       <use transform="scale(0.996264)" xlink:href="#CMR17-51"/>
       <use transform="translate(45.690477 0)scale(0.996264)" xlink:href="#CMR17-51"/>
       <use transform="translate(91.380954 0)scale(0.996264)" xlink:href="#CMMI12-58"/>
       <use transform="translate(118.478131 0)scale(0.996264)" xlink:href="#CMR17-48"/>
      </g>
     </g>
    </g>
    <g id="xtick_5">
     <g id="line2d_5">
      <g>
       <use style="stroke:#000000;stroke-width:0.8;" x="400.846245" xlink:href="#m0929f655a4" y="229.610711"/>
      </g>
     </g>
     <g id="text_5">
      <!-- $33.5$ -->
      <g transform="translate(386.972491 247.6803)scale(0.16 -0.16)">
       <use transform="scale(0.996264)" xlink:href="#CMR17-51"/>
       <use transform="translate(45.690477 0)scale(0.996264)" xlink:href="#CMR17-51"/>
       <use transform="translate(91.380954 0)scale(0.996264)" xlink:href="#CMMI12-58"/>
       <use transform="translate(118.478131 0)scale(0.996264)" xlink:href="#CMR17-53"/>
      </g>
     </g>
    </g>
    <g id="text_6">
     <!-- log(E) (erg) -->
     <defs>
      <path d="M 14.796875 69 
L 7.40625 69 
L 7.40625 0 
L 14.796875 0 
z
" id="CMSS17-108"/>
      <path d="M 44.203125 21.1875 
C 44.203125 34 34.703125 44 23.5 44 
C 12 44 2.703125 33.703125 2.703125 21.1875 
C 2.703125 8.5 12.296875 -1 23.40625 -1 
C 34.796875 -1 44.203125 8.796875 44.203125 21.1875 
M 23.5 5.265625 
C 16.40625 5.265625 10.296875 11.078125 10.296875 22 
C 10.296875 33.609375 17.40625 37.921875 23.40625 37.921875 
C 29.90625 37.921875 36.59375 33.21875 36.59375 22 
C 36.59375 10.671875 30.09375 5.265625 23.5 5.265625 
" id="CMSS17-111"/>
      <path d="M 44.5 43.875 
C 38.796875 43.875 33.90625 42.78125 29.90625 40.890625 
C 26.59375 43.390625 23.203125 43.875 20.90625 43.875 
C 12.203125 43.875 5.59375 36.703125 5.59375 28.34375 
C 5.59375 22.9375 8.59375 18.859375 8.796875 18.671875 
C 7 16.171875 6 13.484375 6 10.5 
C 6 7 7.40625 4.515625 8.5 3.125 
C 3.296875 -0.046875 2.59375 -4.90625 2.59375 -6.796875 
C 2.59375 -14.03125 11.703125 -20 23.40625 -20 
C 35.203125 -20 44.296875 -14.03125 44.296875 -6.6875 
C 44.296875 7 29 7 24.796875 7 
L 16.703125 7 
C 15.203125 7 11.203125 7 11.203125 12.359375 
C 11.203125 14.390625 12.09375 15.6875 12.203125 15.78125 
C 13.703125 14.6875 16.796875 13 20.90625 13 
C 29.203125 13 36.09375 19.96875 36.09375 28.546875 
C 36.09375 33.3125 33.90625 36.796875 33 38 
L 33.296875 38 
C 33.59375 38 37.796875 38 39.296875 38 
C 42.5 38 42.796875 37.953125 45.59375 37.796875 
z
M 20.90625 18.46875 
C 17.5 18.46875 12.703125 20.546875 12.703125 28.484375 
C 12.703125 37.109375 18.203125 38.5 20.796875 38.5 
C 24.203125 38.5 29 36.421875 29 28.484375 
C 29 19.859375 23.5 18.46875 20.90625 18.46875 
M 24.703125 -0.15625 
C 27.09375 -0.15625 37.203125 -0.15625 37.203125 -6.90625 
C 37.203125 -11.15625 31 -14.515625 23.5 -14.515625 
C 15.90625 -14.515625 9.703125 -11.25 9.703125 -6.796875 
C 9.703125 -6.296875 9.703125 -0.15625 16.59375 -0.15625 
z
" id="CMSS17-103"/>
      <path d="M 25.203125 74.5 
C 19.796875 69.015625 7.40625 56.265625 7.40625 24.8125 
C 7.40625 -6.765625 19.796875 -19.421875 25.203125 -25 
L 31.296875 -25 
C 19 -12.25 15 5.578125 15 24.703125 
C 15 43.71875 18.796875 61.65625 31.296875 74.5 
z
" id="CMSS17-40"/>
      <path d="M 30.59375 6.765625 
C 22.59375 6.765625 19 6.765625 17.203125 6.765625 
L 17.203125 32.921875 
L 48.203125 32.921875 
L 48.203125 39 
L 17.203125 39 
L 17.203125 62.640625 
L 30.09375 62.640625 
C 31.296875 62.640625 32.5 62.640625 33.703125 62.640625 
L 50.796875 62.640625 
L 50.796875 69 
L 8.796875 69 
L 8.796875 0 
L 52.09375 0 
L 52.09375 6.765625 
z
" id="CMSS17-69"/>
      <path d="M 11.296875 -25 
C 16.703125 -19.515625 29.09375 -6.765625 29.09375 24.703125 
C 29.09375 56.265625 16.703125 68.921875 11.296875 74.5 
L 5.203125 74.5 
C 17.5 61.75 21.5 43.921875 21.5 24.8125 
C 21.5 5.78125 17.703125 -12.15625 5.203125 -25 
z
" id="CMSS17-41"/>
      <path d="M 39.09375 21.515625 
C 39.09375 24.84375 38.90625 31.296875 35.703125 36.640625 
C 32.203125 42.390625 26.5 44 22.203125 44 
C 11.796875 44 3 34.1875 3 21.484375 
C 3 9.09375 12.09375 -1 23.59375 -1 
C 28.09375 -1 33.59375 0.296875 38.59375 3.875 
C 38.59375 4.28125 38.40625 6.46875 38.296875 6.5625 
C 38.296875 6.765625 38 9.84375 38 10.25 
C 33.203125 6.359375 27.703125 5.078125 23.703125 5.078125 
C 17.296875 5.078125 10.40625 10.421875 10.09375 21.515625 
z
M 10.90625 27 
C 12.203125 32.5625 16.59375 37.828125 22.203125 37.828125 
C 23.703125 37.828125 30.703125 37.828125 32.5 27 
z
" id="CMSS17-101"/>
      <path d="M 14.90625 21.296875 
C 14.90625 30.703125 21.796875 37 30.59375 37 
L 30.59375 43.578125 
C 24.203125 43.578125 18.203125 40.390625 14.59375 35.203125 
L 14.59375 43.09375 
L 7.5 43.09375 
L 7.5 0 
L 14.90625 0 
z
" id="CMSS17-114"/>
     </defs>
     <g transform="translate(200.161889 266.734944)scale(0.16 -0.16)">
      <use transform="scale(0.996264)" xlink:href="#CMSS17-108"/>
      <use transform="translate(22.180723 0)scale(0.996264)" xlink:href="#CMSS17-111"/>
      <use transform="translate(69.024347 0)scale(0.996264)" xlink:href="#CMSS17-103"/>
      <use transform="translate(115.86797 0)scale(0.996264)" xlink:href="#CMSS17-40"/>
      <use transform="translate(152.301884 0)scale(0.996264)" xlink:href="#CMSS17-69"/>
      <use transform="translate(208.193898 0)scale(0.996264)" xlink:href="#CMSS17-41"/>
      <use transform="translate(275.856924 0)scale(0.996264)" xlink:href="#CMSS17-40"/>
      <use transform="translate(312.290839 0)scale(0.996264)" xlink:href="#CMSS17-101"/>
      <use transform="translate(353.929661 0)scale(0.996264)" xlink:href="#CMSS17-114"/>
      <use transform="translate(385.839433 0)scale(0.996264)" xlink:href="#CMSS17-103"/>
      <use transform="translate(432.683057 0)scale(0.996264)" xlink:href="#CMSS17-41"/>
     </g>
    </g>
   </g>
   <g id="matplotlib.axis_2">
    <g id="ytick_1">
     <g id="line2d_6">
      <defs>
       <path d="M 0 0 
L -3.5 0 
" id="ma8fe21233d" style="stroke:#000000;stroke-width:0.8;"/>
      </defs>
      <g>
       <use style="stroke:#000000;stroke-width:0.8;" x="77.581934" xlink:href="#ma8fe21233d" y="229.610711"/>
      </g>
     </g>
     <g id="text_7">
      <!-- $-5.0$ -->
      <defs>
       <path d="M 65.90625 23 
C 67.59375 23 69.40625 23 69.40625 25 
C 69.40625 27 67.59375 27 65.90625 27 
L 11.796875 27 
C 10.09375 27 8.296875 27 8.296875 25 
C 8.296875 23 10.09375 23 11.796875 23 
z
" id="CMSY10-0"/>
      </defs>
      <g transform="translate(38.240416 235.145505)scale(0.16 -0.16)">
       <use transform="scale(0.996264)" xlink:href="#CMSY10-0"/>
       <use transform="translate(77.487468 0)scale(0.996264)" xlink:href="#CMR17-53"/>
       <use transform="translate(123.177945 0)scale(0.996264)" xlink:href="#CMMI12-58"/>
       <use transform="translate(150.275122 0)scale(0.996264)" xlink:href="#CMR17-48"/>
      </g>
     </g>
    </g>
    <g id="ytick_2">
     <g id="line2d_7">
      <g>
       <use style="stroke:#000000;stroke-width:0.8;" x="77.581934" xlink:href="#ma8fe21233d" y="177.911732"/>
      </g>
     </g>
     <g id="text_8">
      <!-- $-4.5$ -->
      <defs>
       <path d="M 33.59375 64.40625 
C 33.59375 66.5 33.5 66.5 31.703125 66.5 
L 2 19.59375 
L 2 17 
L 27.796875 17 
L 27.796875 7.140625 
C 27.796875 3.5 27.59375 2.5 20.59375 2.5 
L 18.703125 2.5 
L 18.703125 0 
C 21.90625 0 27.296875 0 30.703125 0 
C 34.09375 0 39.5 0 42.703125 0 
L 42.703125 2.5 
L 40.796875 2.5 
C 33.796875 2.5 33.59375 3.5 33.59375 7.140625 
L 33.59375 17 
L 43.796875 17 
L 43.796875 19.59375 
L 33.59375 19.59375 
z
M 28.09375 57.859375 
L 28.09375 19.59375 
L 4 19.59375 
z
" id="CMR17-52"/>
      </defs>
      <g transform="translate(38.240416 183.446526)scale(0.16 -0.16)">
       <use transform="scale(0.996264)" xlink:href="#CMSY10-0"/>
       <use transform="translate(77.487468 0)scale(0.996264)" xlink:href="#CMR17-52"/>
       <use transform="translate(123.177945 0)scale(0.996264)" xlink:href="#CMMI12-58"/>
       <use transform="translate(150.275122 0)scale(0.996264)" xlink:href="#CMR17-53"/>
      </g>
     </g>
    </g>
    <g id="ytick_3">
     <g id="line2d_8">
      <g>
       <use style="stroke:#000000;stroke-width:0.8;" x="77.581934" xlink:href="#ma8fe21233d" y="126.212753"/>
      </g>
     </g>
     <g id="text_9">
      <!-- $-4.0$ -->
      <g transform="translate(38.240416 131.747547)scale(0.16 -0.16)">
       <use transform="scale(0.996264)" xlink:href="#CMSY10-0"/>
       <use transform="translate(77.487468 0)scale(0.996264)" xlink:href="#CMR17-52"/>
       <use transform="translate(123.177945 0)scale(0.996264)" xlink:href="#CMMI12-58"/>
       <use transform="translate(150.275122 0)scale(0.996264)" xlink:href="#CMR17-48"/>
      </g>
     </g>
    </g>
    <g id="ytick_4">
     <g id="line2d_9">
      <g>
       <use style="stroke:#000000;stroke-width:0.8;" x="77.581934" xlink:href="#ma8fe21233d" y="74.513773"/>
      </g>
     </g>
     <g id="text_10">
      <!-- $-3.5$ -->
      <g transform="translate(38.240416 80.048568)scale(0.16 -0.16)">
       <use transform="scale(0.996264)" xlink:href="#CMSY10-0"/>
       <use transform="translate(77.487468 0)scale(0.996264)" xlink:href="#CMR17-51"/>
       <use transform="translate(123.177945 0)scale(0.996264)" xlink:href="#CMMI12-58"/>
       <use transform="translate(150.275122 0)scale(0.996264)" xlink:href="#CMR17-53"/>
      </g>
     </g>
    </g>
    <g id="ytick_5">
     <g id="line2d_10">
      <g>
       <use style="stroke:#000000;stroke-width:0.8;" x="77.581934" xlink:href="#ma8fe21233d" y="22.814794"/>
      </g>
     </g>
     <g id="text_11">
      <!-- $-3.0$ -->
      <g transform="translate(38.240416 28.349588)scale(0.16 -0.16)">
       <use transform="scale(0.996264)" xlink:href="#CMSY10-0"/>
       <use transform="translate(77.487468 0)scale(0.996264)" xlink:href="#CMR17-51"/>
       <use transform="translate(123.177945 0)scale(0.996264)" xlink:href="#CMMI12-58"/>
       <use transform="translate(150.275122 0)scale(0.996264)" xlink:href="#CMR17-48"/>
      </g>
     </g>
    </g>
    <g id="text_12">
     <!-- log(f) (yr$^{-1}$) -->
     <defs>
      <path d="M 16.796875 37 
L 26.90625 37 
L 26.90625 42.765625 
L 16.59375 42.765625 
L 16.59375 55.609375 
C 16.59375 62.71875 22 63.9375 25.09375 63.9375 
C 26.09375 63.9375 28.90625 63.9375 32.5 62.640625 
L 32.5 69.203125 
C 30.203125 69.703125 27.40625 70 25.203125 70 
C 15.90625 70 9.40625 62.390625 9.40625 52.484375 
L 9.40625 42.765625 
L 2.5 42.765625 
L 2.5 37 
L 9.40625 37 
L 9.40625 0 
L 16.796875 0 
z
" id="CMSS17-102"/>
      <path d="M 41.796875 43 
L 34 43 
C 25.5 20.21875 22.59375 10.96875 22.40625 5.984375 
L 22.296875 5.984375 
C 22 10.875 17.59375 22.8125 14.09375 31.359375 
L 9.40625 43 
L 1.296875 43 
L 19 0.203125 
C 17.90625 -2.78125 16.296875 -7.265625 15.796875 -8.265625 
C 13.59375 -13.828125 12.09375 -13.828125 10.5 -13.828125 
C 10.09375 -13.828125 6.90625 -13.828125 3.296875 -12.640625 
L 3.90625 -19.203125 
C 6.40625 -19.703125 8.90625 -20 10.703125 -20 
C 13.203125 -20 18.203125 -20 22.796875 -7.765625 
z
" id="CMSS17-121"/>
     </defs>
     <g transform="translate(30.25536 167.119624)rotate(-90)scale(0.16 -0.16)">
      <use transform="scale(0.996264)" xlink:href="#CMSS17-108"/>
      <use transform="translate(22.180723 0)scale(0.996264)" xlink:href="#CMSS17-111"/>
      <use transform="translate(69.024347 0)scale(0.996264)" xlink:href="#CMSS17-103"/>
      <use transform="translate(115.86797 0)scale(0.996264)" xlink:href="#CMSS17-40"/>
      <use transform="translate(152.301884 0)scale(0.996264)" xlink:href="#CMSS17-102"/>
      <use transform="translate(187.434617 0)scale(0.996264)" xlink:href="#CMSS17-41"/>
      <use transform="translate(255.097644 0)scale(0.996264)" xlink:href="#CMSS17-40"/>
      <use transform="translate(291.531558 0)scale(0.996264)" xlink:href="#CMSS17-121"/>
      <use transform="translate(334.5317 0)scale(0.996264)" xlink:href="#CMSS17-114"/>
      <use transform="translate(366.441473 36.153639)scale(0.697382)" xlink:href="#CMSY10-0"/>
      <use transform="translate(420.682466 36.153639)scale(0.697382)" xlink:href="#CMR17-49"/>
      <use transform="translate(453.16378 0)scale(0.996264)" xlink:href="#CMSS17-41"/>
     </g>
    </g>
   </g>
   <g id="line2d_11">
    <path clip-path="url(#pcf82c5ef7f)" d="M 121.494729 49.960614 
L 371.46372 175.055364 
L 371.46372 175.055364 
" style="fill:none;opacity:0.2;stroke:#1f77b4;stroke-linecap:square;stroke-width:1.5;"/>
   </g>
   <g id="line2d_12">
    <path clip-path="url(#pcf82c5ef7f)" d="M 121.494729 50.033224 
L 371.46372 174.986685 
L 371.46372 174.986685 
" style="fill:none;opacity:0.2;stroke:#ff7f0e;stroke-linecap:square;stroke-width:1.5;"/>
   </g>
   <g id="line2d_13">
    <path clip-path="url(#pcf82c5ef7f)" d="M 121.494729 50.067073 
L 371.46372 174.953035 
L 371.46372 174.953035 
" style="fill:none;opacity:0.2;stroke:#2ca02c;stroke-linecap:square;stroke-width:1.5;"/>
   </g>
   <g id="line2d_14">
    <path clip-path="url(#pcf82c5ef7f)" d="M 121.494729 50.279564 
L 371.46372 174.770637 
L 371.46372 174.770637 
" style="fill:none;opacity:0.2;stroke:#d62728;stroke-linecap:square;stroke-width:1.5;"/>
   </g>
   <g id="line2d_15">
    <path clip-path="url(#pcf82c5ef7f)" d="M 121.494729 50.331217 
L 371.46372 174.726636 
L 371.46372 174.726636 
" style="fill:none;opacity:0.2;stroke:#9467bd;stroke-linecap:square;stroke-width:1.5;"/>
   </g>
   <g id="line2d_16">
    <path clip-path="url(#pcf82c5ef7f)" d="M 121.494729 50.398369 
L 371.46372 174.672196 
L 371.46372 174.672196 
" style="fill:none;opacity:0.2;stroke:#8c564b;stroke-linecap:square;stroke-width:1.5;"/>
   </g>
   <g id="line2d_17">
    <path clip-path="url(#pcf82c5ef7f)" d="M 121.494729 50.377302 
L 371.46372 174.686045 
L 371.46372 174.686045 
" style="fill:none;opacity:0.2;stroke:#e377c2;stroke-linecap:square;stroke-width:1.5;"/>
   </g>
   <g id="line2d_18">
    <path clip-path="url(#pcf82c5ef7f)" d="M 121.494729 50.350088 
L 371.46372 174.704065 
L 371.46372 174.704065 
" style="fill:none;opacity:0.2;stroke:#7f7f7f;stroke-linecap:square;stroke-width:1.5;"/>
   </g>
   <g id="line2d_19">
    <path clip-path="url(#pcf82c5ef7f)" d="M 121.494729 50.353381 
L 371.46372 174.698975 
L 371.46372 174.698975 
" style="fill:none;opacity:0.2;stroke:#bcbd22;stroke-linecap:square;stroke-width:1.5;"/>
   </g>
   <g id="line2d_20">
    <path clip-path="url(#pcf82c5ef7f)" d="M 121.494729 50.361796 
L 371.46372 174.689784 
L 371.46372 174.689784 
" style="fill:none;opacity:0.2;stroke:#17becf;stroke-linecap:square;stroke-width:1.5;"/>
   </g>
   <g id="line2d_21">
    <path clip-path="url(#pcf82c5ef7f)" d="M 121.494729 50.344054 
L 371.46372 174.700137 
L 371.46372 174.700137 
" style="fill:none;opacity:0.2;stroke:#1f77b4;stroke-linecap:square;stroke-width:1.5;"/>
   </g>
   <g id="line2d_22">
    <path clip-path="url(#pcf82c5ef7f)" d="M 121.494729 50.330888 
L 371.46372 174.706836 
L 371.46372 174.706836 
" style="fill:none;opacity:0.2;stroke:#ff7f0e;stroke-linecap:square;stroke-width:1.5;"/>
   </g>
   <g id="line2d_23">
    <path clip-path="url(#pcf82c5ef7f)" d="M 121.494729 50.313698 
L 371.46372 174.715664 
L 371.46372 174.715664 
" style="fill:none;opacity:0.2;stroke:#2ca02c;stroke-linecap:square;stroke-width:1.5;"/>
   </g>
   <g id="line2d_24">
    <path clip-path="url(#pcf82c5ef7f)" d="M 121.494729 50.417198 
L 371.46372 174.640457 
L 371.46372 174.640457 
" style="fill:none;opacity:0.2;stroke:#d62728;stroke-linecap:square;stroke-width:1.5;"/>
   </g>
   <g id="line2d_25">
    <path clip-path="url(#pcf82c5ef7f)" d="M 121.494729 50.517194 
L 371.46372 174.575159 
L 371.46372 174.575159 
" style="fill:none;opacity:0.2;stroke:#9467bd;stroke-linecap:square;stroke-width:1.5;"/>
   </g>
   <g id="line2d_26">
    <path clip-path="url(#pcf82c5ef7f)" d="M 121.494729 50.49477 
L 371.46372 174.58704 
L 371.46372 174.58704 
" style="fill:none;opacity:0.2;stroke:#8c564b;stroke-linecap:square;stroke-width:1.5;"/>
   </g>
   <g id="line2d_27">
    <path clip-path="url(#pcf82c5ef7f)" d="M 121.494729 50.498008 
L 371.46372 174.583416 
L 371.46372 174.583416 
" style="fill:none;opacity:0.2;stroke:#e377c2;stroke-linecap:square;stroke-width:1.5;"/>
   </g>
   <g id="line2d_28">
    <path clip-path="url(#pcf82c5ef7f)" d="M 121.494729 50.606192 
L 371.46372 174.525579 
L 371.46372 174.525579 
" style="fill:none;opacity:0.2;stroke:#7f7f7f;stroke-linecap:square;stroke-width:1.5;"/>
   </g>
   <g id="line2d_29">
    <path clip-path="url(#pcf82c5ef7f)" d="M 121.494729 50.593291 
L 371.46372 174.531842 
L 371.46372 174.531842 
" style="fill:none;opacity:0.2;stroke:#bcbd22;stroke-linecap:square;stroke-width:1.5;"/>
   </g>
   <g id="line2d_30">
    <path clip-path="url(#pcf82c5ef7f)" d="M 121.494729 50.607819 
L 371.46372 174.525308 
L 371.46372 174.525308 
" style="fill:none;opacity:0.2;stroke:#17becf;stroke-linecap:square;stroke-width:1.5;"/>
   </g>
   <g id="line2d_31">
    <path clip-path="url(#pcf82c5ef7f)" d="M 121.494729 50.592431 
L 371.46372 174.53214 
L 371.46372 174.53214 
" style="fill:none;opacity:0.2;stroke:#1f77b4;stroke-linecap:square;stroke-width:1.5;"/>
   </g>
   <g id="line2d_32">
    <path clip-path="url(#pcf82c5ef7f)" d="M 121.494729 50.596545 
L 371.46372 174.530768 
L 371.46372 174.530768 
" style="fill:none;opacity:0.2;stroke:#ff7f0e;stroke-linecap:square;stroke-width:1.5;"/>
   </g>
   <g id="line2d_33">
    <path clip-path="url(#pcf82c5ef7f)" d="M 121.494729 50.653275 
L 371.46372 174.512863 
L 371.46372 174.512863 
" style="fill:none;opacity:0.2;stroke:#2ca02c;stroke-linecap:square;stroke-width:1.5;"/>
   </g>
   <g id="line2d_34">
    <path clip-path="url(#pcf82c5ef7f)" d="M 121.494729 50.62456 
L 371.46372 174.522562 
L 371.46372 174.522562 
" style="fill:none;opacity:0.2;stroke:#d62728;stroke-linecap:square;stroke-width:1.5;"/>
   </g>
   <g id="line2d_35">
    <path clip-path="url(#pcf82c5ef7f)" d="M 121.494729 50.745973 
L 371.46372 174.508373 
L 371.46372 174.508373 
" style="fill:none;opacity:0.2;stroke:#9467bd;stroke-linecap:square;stroke-width:1.5;"/>
   </g>
   <g id="line2d_36">
    <path clip-path="url(#pcf82c5ef7f)" d="M 121.494729 50.741539 
L 371.46372 174.51582 
L 371.46372 174.51582 
" style="fill:none;opacity:0.2;stroke:#8c564b;stroke-linecap:square;stroke-width:1.5;"/>
   </g>
   <g id="line2d_37">
    <path clip-path="url(#pcf82c5ef7f)" d="M 121.494729 50.722954 
L 371.46372 174.521873 
L 371.46372 174.521873 
" style="fill:none;opacity:0.2;stroke:#e377c2;stroke-linecap:square;stroke-width:1.5;"/>
   </g>
   <g id="line2d_38">
    <path clip-path="url(#pcf82c5ef7f)" d="M 121.494729 50.704317 
L 371.46372 174.527298 
L 371.46372 174.527298 
" style="fill:none;opacity:0.2;stroke:#7f7f7f;stroke-linecap:square;stroke-width:1.5;"/>
   </g>
   <g id="line2d_39">
    <path clip-path="url(#pcf82c5ef7f)" d="M 121.494729 50.675823 
L 371.46372 174.53023 
L 371.46372 174.53023 
" style="fill:none;opacity:0.2;stroke:#bcbd22;stroke-linecap:square;stroke-width:1.5;"/>
   </g>
   <g id="line2d_40">
    <path clip-path="url(#pcf82c5ef7f)" d="M 121.494729 50.648246 
L 371.46372 174.53218 
L 371.46372 174.53218 
" style="fill:none;opacity:0.2;stroke:#17becf;stroke-linecap:square;stroke-width:1.5;"/>
   </g>
   <g id="line2d_41">
    <path clip-path="url(#pcf82c5ef7f)" d="M 121.494729 50.693289 
L 371.46372 174.547235 
L 371.46372 174.547235 
" style="fill:none;opacity:0.2;stroke:#1f77b4;stroke-linecap:square;stroke-width:1.5;"/>
   </g>
   <g id="line2d_42">
    <path clip-path="url(#pcf82c5ef7f)" d="M 121.494729 50.696723 
L 371.46372 174.557472 
L 371.46372 174.557472 
" style="fill:none;opacity:0.2;stroke:#ff7f0e;stroke-linecap:square;stroke-width:1.5;"/>
   </g>
   <g id="line2d_43">
    <path clip-path="url(#pcf82c5ef7f)" d="M 121.494729 50.70912 
L 371.46372 174.577653 
L 371.46372 174.577653 
" style="fill:none;opacity:0.2;stroke:#2ca02c;stroke-linecap:square;stroke-width:1.5;"/>
   </g>
   <g id="line2d_44">
    <path clip-path="url(#pcf82c5ef7f)" d="M 121.494729 50.71518 
L 371.46372 174.599659 
L 371.46372 174.599659 
" style="fill:none;opacity:0.2;stroke:#d62728;stroke-linecap:square;stroke-width:1.5;"/>
   </g>
   <g id="line2d_45">
    <path clip-path="url(#pcf82c5ef7f)" d="M 121.494729 50.69892 
L 371.46372 174.599262 
L 371.46372 174.599262 
" style="fill:none;opacity:0.2;stroke:#9467bd;stroke-linecap:square;stroke-width:1.5;"/>
   </g>
   <g id="line2d_46">
    <path clip-path="url(#pcf82c5ef7f)" d="M 121.494729 50.691902 
L 371.46372 174.608839 
L 371.46372 174.608839 
" style="fill:none;opacity:0.2;stroke:#8c564b;stroke-linecap:square;stroke-width:1.5;"/>
   </g>
   <g id="line2d_47">
    <path clip-path="url(#pcf82c5ef7f)" d="M 121.494729 50.673102 
L 371.46372 174.599944 
L 371.46372 174.599944 
" style="fill:none;opacity:0.2;stroke:#e377c2;stroke-linecap:square;stroke-width:1.5;"/>
   </g>
   <g id="line2d_48">
    <path clip-path="url(#pcf82c5ef7f)" d="M 121.494729 50.685137 
L 371.46372 174.640965 
L 371.46372 174.640965 
" style="fill:none;opacity:0.2;stroke:#7f7f7f;stroke-linecap:square;stroke-width:1.5;"/>
   </g>
   <g id="line2d_49">
    <path clip-path="url(#pcf82c5ef7f)" d="M 121.494729 50.680121 
L 371.46372 174.657621 
L 371.46372 174.657621 
" style="fill:none;opacity:0.2;stroke:#bcbd22;stroke-linecap:square;stroke-width:1.5;"/>
   </g>
   <g id="line2d_50">
    <path clip-path="url(#pcf82c5ef7f)" d="M 121.494729 50.661693 
L 371.46372 174.639752 
L 371.46372 174.639752 
" style="fill:none;opacity:0.2;stroke:#17becf;stroke-linecap:square;stroke-width:1.5;"/>
   </g>
   <g id="line2d_51">
    <path clip-path="url(#pcf82c5ef7f)" d="M 121.494729 50.651579 
L 371.46372 174.639644 
L 371.46372 174.639644 
" style="fill:none;opacity:0.2;stroke:#1f77b4;stroke-linecap:square;stroke-width:1.5;"/>
   </g>
   <g id="line2d_52">
    <path clip-path="url(#pcf82c5ef7f)" d="M 121.494729 50.636664 
L 371.46372 174.621616 
L 371.46372 174.621616 
" style="fill:none;opacity:0.2;stroke:#ff7f0e;stroke-linecap:square;stroke-width:1.5;"/>
   </g>
   <g id="line2d_53">
    <path clip-path="url(#pcf82c5ef7f)" d="M 121.494729 50.62751 
L 371.46372 174.616178 
L 371.46372 174.616178 
" style="fill:none;opacity:0.2;stroke:#2ca02c;stroke-linecap:square;stroke-width:1.5;"/>
   </g>
   <g id="line2d_54">
    <path clip-path="url(#pcf82c5ef7f)" d="M 121.494729 50.625477 
L 371.46372 174.635041 
L 371.46372 174.635041 
" style="fill:none;opacity:0.2;stroke:#d62728;stroke-linecap:square;stroke-width:1.5;"/>
   </g>
   <g id="line2d_55">
    <path clip-path="url(#pcf82c5ef7f)" d="M 121.494729 50.614879 
L 371.46372 174.613945 
L 371.46372 174.613945 
" style="fill:none;opacity:0.2;stroke:#9467bd;stroke-linecap:square;stroke-width:1.5;"/>
   </g>
   <g id="line2d_56">
    <path clip-path="url(#pcf82c5ef7f)" d="M 121.494729 50.61291 
L 371.46372 174.876158 
L 371.46372 174.876158 
" style="fill:none;opacity:0.2;stroke:#8c564b;stroke-linecap:square;stroke-width:1.5;"/>
   </g>
   <g id="line2d_57">
    <path clip-path="url(#pcf82c5ef7f)" d="M 121.494729 50.600118 
L 371.46372 174.881745 
L 371.46372 174.881745 
" style="fill:none;opacity:0.2;stroke:#e377c2;stroke-linecap:square;stroke-width:1.5;"/>
   </g>
   <g id="line2d_58">
    <path clip-path="url(#pcf82c5ef7f)" d="M 121.494729 50.595465 
L 371.46372 174.821422 
L 371.46372 174.821422 
" style="fill:none;opacity:0.2;stroke:#7f7f7f;stroke-linecap:square;stroke-width:1.5;"/>
   </g>
   <g id="line2d_59">
    <path clip-path="url(#pcf82c5ef7f)" d="M 121.494729 50.591109 
L 371.46372 174.770847 
L 371.46372 174.770847 
" style="fill:none;opacity:0.2;stroke:#bcbd22;stroke-linecap:square;stroke-width:1.5;"/>
   </g>
   <g id="line2d_60">
    <path clip-path="url(#pcf82c5ef7f)" d="M 121.494729 50.58804 
L 371.46372 174.719656 
L 371.46372 174.719656 
" style="fill:none;opacity:0.2;stroke:#17becf;stroke-linecap:square;stroke-width:1.5;"/>
   </g>
   <g id="line2d_61">
    <path clip-path="url(#pcf82c5ef7f)" d="M 121.494729 50.584464 
L 371.46372 174.692725 
L 371.46372 174.692725 
" style="fill:none;opacity:0.2;stroke:#1f77b4;stroke-linecap:square;stroke-width:1.5;"/>
   </g>
   <g id="line2d_62">
    <path clip-path="url(#pcf82c5ef7f)" d="M 121.494729 50.579261 
L 371.46372 174.691952 
L 371.46372 174.691952 
" style="fill:none;opacity:0.2;stroke:#ff7f0e;stroke-linecap:square;stroke-width:1.5;"/>
   </g>
   <g id="line2d_63">
    <path clip-path="url(#pcf82c5ef7f)" d="M 121.494729 50.580655 
L 371.46372 174.643433 
L 371.46372 174.643433 
" style="fill:none;opacity:0.2;stroke:#2ca02c;stroke-linecap:square;stroke-width:1.5;"/>
   </g>
   <g id="line2d_64">
    <path clip-path="url(#pcf82c5ef7f)" d="M 121.494729 50.582544 
L 371.46372 174.605909 
L 371.46372 174.605909 
" style="fill:none;opacity:0.2;stroke:#d62728;stroke-linecap:square;stroke-width:1.5;"/>
   </g>
   <g id="line2d_65">
    <path clip-path="url(#pcf82c5ef7f)" d="M 121.494729 50.58836 
L 371.46372 174.550372 
L 371.46372 174.550372 
" style="fill:none;opacity:0.2;stroke:#9467bd;stroke-linecap:square;stroke-width:1.5;"/>
   </g>
   <g id="line2d_66">
    <path clip-path="url(#pcf82c5ef7f)" d="M 121.494729 50.575452 
L 371.46372 174.621329 
L 371.46372 174.621329 
" style="fill:none;opacity:0.2;stroke:#8c564b;stroke-linecap:square;stroke-width:1.5;"/>
   </g>
   <g id="line2d_67">
    <path clip-path="url(#pcf82c5ef7f)" d="M 121.494729 50.579397 
L 371.46372 174.591151 
L 371.46372 174.591151 
" style="fill:none;opacity:0.2;stroke:#e377c2;stroke-linecap:square;stroke-width:1.5;"/>
   </g>
   <g id="line2d_68">
    <path clip-path="url(#pcf82c5ef7f)" d="M 121.494729 50.574111 
L 371.46372 174.607391 
L 371.46372 174.607391 
" style="fill:none;opacity:0.2;stroke:#7f7f7f;stroke-linecap:square;stroke-width:1.5;"/>
   </g>
   <g id="line2d_69">
    <path clip-path="url(#pcf82c5ef7f)" d="M 121.494729 50.604461 
L 371.46372 174.472007 
L 371.46372 174.472007 
" style="fill:none;opacity:0.2;stroke:#bcbd22;stroke-linecap:square;stroke-width:1.5;"/>
   </g>
   <g id="line2d_70">
    <path clip-path="url(#pcf82c5ef7f)" d="M 121.494729 50.564058 
L 371.46372 174.631701 
L 371.46372 174.631701 
" style="fill:none;opacity:0.2;stroke:#17becf;stroke-linecap:square;stroke-width:1.5;"/>
   </g>
   <g id="line2d_71">
    <path clip-path="url(#pcf82c5ef7f)" d="M 121.494729 50.575313 
L 371.46372 174.585969 
L 371.46372 174.585969 
" style="fill:none;opacity:0.2;stroke:#1f77b4;stroke-linecap:square;stroke-width:1.5;"/>
   </g>
   <g id="line2d_72">
    <path clip-path="url(#pcf82c5ef7f)" d="M 121.494729 50.62782 
L 371.46372 174.405325 
L 371.46372 174.405325 
" style="fill:none;opacity:0.2;stroke:#ff7f0e;stroke-linecap:square;stroke-width:1.5;"/>
   </g>
   <g id="line2d_73">
    <path clip-path="url(#pcf82c5ef7f)" d="M 121.494729 50.677717 
L 371.46372 174.243115 
L 371.46372 174.243115 
" style="fill:none;opacity:0.2;stroke:#2ca02c;stroke-linecap:square;stroke-width:1.5;"/>
   </g>
   <g id="line2d_74">
    <path clip-path="url(#pcf82c5ef7f)" d="M 121.494729 50.728407 
L 371.46372 174.088719 
L 371.46372 174.088719 
" style="fill:none;opacity:0.2;stroke:#d62728;stroke-linecap:square;stroke-width:1.5;"/>
   </g>
   <g id="line2d_75">
    <path clip-path="url(#pcf82c5ef7f)" d="M 121.494729 50.805122 
L 371.46372 173.854416 
L 371.46372 173.854416 
" style="fill:none;opacity:0.2;stroke:#9467bd;stroke-linecap:square;stroke-width:1.5;"/>
   </g>
   <g id="line2d_76">
    <path clip-path="url(#pcf82c5ef7f)" d="M 121.494729 50.813649 
L 371.46372 173.892711 
L 371.46372 173.892711 
" style="fill:none;opacity:0.2;stroke:#8c564b;stroke-linecap:square;stroke-width:1.5;"/>
   </g>
   <g id="line2d_77">
    <path clip-path="url(#pcf82c5ef7f)" d="M 121.494729 50.797498 
L 371.46372 173.979798 
L 371.46372 173.979798 
" style="fill:none;opacity:0.2;stroke:#e377c2;stroke-linecap:square;stroke-width:1.5;"/>
   </g>
   <g id="line2d_78">
    <path clip-path="url(#pcf82c5ef7f)" d="M 121.494729 50.799667 
L 371.46372 174.004413 
L 371.46372 174.004413 
" style="fill:none;opacity:0.2;stroke:#7f7f7f;stroke-linecap:square;stroke-width:1.5;"/>
   </g>
   <g id="line2d_79">
    <path clip-path="url(#pcf82c5ef7f)" d="M 121.494729 50.827927 
L 371.46372 173.962781 
L 371.46372 173.962781 
" style="fill:none;opacity:0.2;stroke:#bcbd22;stroke-linecap:square;stroke-width:1.5;"/>
   </g>
   <g id="line2d_80">
    <path clip-path="url(#pcf82c5ef7f)" d="M 121.494729 51.100713 
L 371.46372 173.323153 
L 371.46372 173.323153 
" style="fill:none;opacity:0.2;stroke:#17becf;stroke-linecap:square;stroke-width:1.5;"/>
   </g>
   <g id="line2d_81">
    <path clip-path="url(#pcf82c5ef7f)" d="M 121.494729 51.409294 
L 371.46372 172.636294 
L 371.46372 172.636294 
" style="fill:none;opacity:0.2;stroke:#1f77b4;stroke-linecap:square;stroke-width:1.5;"/>
   </g>
   <g id="patch_3">
    <path d="M 77.581934 229.610711 
L 77.581934 22.814794 
" style="fill:none;stroke:#000000;stroke-linecap:square;stroke-linejoin:miter;stroke-width:0.8;"/>
   </g>
   <g id="patch_4">
    <path d="M 400.846245 229.610711 
L 400.846245 22.814794 
" style="fill:none;stroke:#000000;stroke-linecap:square;stroke-linejoin:miter;stroke-width:0.8;"/>
   </g>
   <g id="patch_5">
    <path d="M 77.581934 229.610711 
L 400.846245 229.610711 
" style="fill:none;stroke:#000000;stroke-linecap:square;stroke-linejoin:miter;stroke-width:0.8;"/>
   </g>
   <g id="patch_6">
    <path d="M 77.581934 22.814794 
L 400.846245 22.814794 
" style="fill:none;stroke:#000000;stroke-linecap:square;stroke-linejoin:miter;stroke-width:0.8;"/>
   </g>
  </g>
 </g>
 <defs>
  <clipPath id="pcf82c5ef7f">
   <rect height="206.795917" width="323.264311" x="77.581934" y="22.814794"/>
  </clipPath>
 </defs>
</svg>
